<svg id="af83bf8d-2a78-4cbe-a2d8-18fadb1c3a6f" data-name="Ebene 1" xmlns="http://www.w3.org/2000/svg" viewBox="0 0 18 18"><defs><style>.a9271d73-6af0-4562-b3cc-f4d696b3b5f0{fill:#1f382b;fill-rule:evenodd;}</style></defs><title>Zeichenfläche 4</title><path class="a9271d73-6af0-4562-b3cc-f4d696b3b5f0" d="M17,8H15.9a6.84,6.84,0,0,0-1.31-3.17l.77-.78A1,1,0,0,0,14,2.64l-.78.77A6.84,6.84,0,0,0,10,2.1V1A1,1,0,0,0,8,1V2.1A6.84,6.84,0,0,0,4.83,3.41l-.78-.77A1,1,0,0,0,2.64,4.05l.77.78A6.84,6.84,0,0,0,2.1,8H1a1,1,0,0,0,0,2H2.1a6.84,6.84,0,0,0,1.31,3.17L2.64,14a1,1,0,0,0,1.41,1.41l.78-.77A6.84,6.84,0,0,0,8,15.9V17a1,1,0,0,0,2,0V15.9a6.84,6.84,0,0,0,3.17-1.31l.78.77A1,1,0,0,0,15.36,14l-.77-.78A6.84,6.84,0,0,0,15.9,10H17a1,1,0,0,0,0-2ZM9,14a5,5,0,1,1,5-5A5,5,0,0,1,9,14Z"/><path class="a9271d73-6af0-4562-b3cc-f4d696b3b5f0" d="M9,6a3,3,0,1,0,3,3A3,3,0,0,0,9,6Zm0,4a1,1,0,1,1,1-1A1,1,0,0,1,9,10Z"/></svg>