<svg id="f1bc3280-c3bb-493b-95f7-a3f028e773bc" data-name="Ebene 1" xmlns="http://www.w3.org/2000/svg" viewBox="0 0 18 18"><defs><style>.b5b47e41-1ebd-4758-aeb2-36081f534f70{fill:#1f382b;fill-rule:evenodd;}</style></defs><title>Zeichenfläche 9</title><path class="b5b47e41-1ebd-4758-aeb2-36081f534f70" d="M17.15,16.42H.85A.78.78,0,1,0,.85,18h16.3a.78.78,0,1,0,0-1.56Z"/><path class="b5b47e41-1ebd-4758-aeb2-36081f534f70" d="M16.44,0a1.56,1.56,0,0,0-1.55,1.56,1.53,1.53,0,0,0,.29.9L11.62,8.71a1.5,1.5,0,0,0-.8.24L7,6.88a.09.09,0,0,0,0,0,1.56,1.56,0,1,0-2.84.88l-2.36,3-.24,0a1.56,1.56,0,1,0,1.55,1.55,1.72,1.72,0,0,0-.1-.55L5.62,8.37a1.42,1.42,0,0,0,.54-.17l3.92,2.11a1.56,1.56,0,0,0,3.11,0A1.48,1.48,0,0,0,13,9.49l3.64-6.37A1.55,1.55,0,0,0,16.44,0Z"/></svg>