<?xml version="1.0" encoding="utf-8"?>
<!-- Generator: Adobe Illustrator 23.0.1, SVG Export Plug-In . SVG Version: 6.00 Build 0)  -->
<svg version="1.1" id="f4a326ab-ad1a-49e9-836d-90c3b812c0fb"
	 xmlns="http://www.w3.org/2000/svg" xmlns:xlink="http://www.w3.org/1999/xlink" x="0px" y="0px" viewBox="0 0 18 18"
	 style="enable-background:new 0 0 18 18;" xml:space="preserve">
<style type="text/css">
	.st0{fill:#FFFFFF;}
</style>
<title>Zeichenfläche 3</title>
<path class="st0" d="M11,9l6.6-6.6c0.5-0.6,0.5-1.4,0-2c-0.3-0.3-0.6-0.4-1-0.4c-0.4,0-0.7,0.2-1,0.4L9,7L2.4,0.4
	C2.2,0.1,1.8,0,1.4,0C0.6,0,0,0.7,0,1.5c0,0.4,0.2,0.7,0.4,1L7,9l-6.6,6.6c-0.4,0.7-0.3,1.6,0.4,2c0.5,0.3,1.1,0.3,1.6,0L9,11
	l6.6,6.5c0.3,0.3,0.6,0.4,1,0.4l0,0c0.4,0,0.7-0.2,1-0.4c0.3-0.3,0.4-0.6,0.4-1c0-0.4-0.2-0.7-0.4-1L11,9z"/>
</svg>
