<svg id="f4a326ab-ad1a-49e9-836d-90c3b812c0fb" data-name="Ebene 1" xmlns="http://www.w3.org/2000/svg" viewBox="0 0 18 18"><defs><style>.b4915c1e-40a9-48a1-9cfe-694f68a9e328{fill:#1f382b;}</style></defs><title>Zeichenfläche 3</title><path class="b4915c1e-40a9-48a1-9cfe-694f68a9e328" d="M11,9l6.56-6.55a1.44,1.44,0,0,0,0-2,1.33,1.33,0,0,0-1-.41,1.4,1.4,0,0,0-1,.43L9,7,2.44.42a1.29,1.29,0,0,0-1-.41,1.44,1.44,0,0,0-1,2.46L7,9,.42,15.55a1.44,1.44,0,0,0,2,2L9,11l6.56,6.55a1.43,1.43,0,0,0,1,.41h0a1.48,1.48,0,0,0,1-.43,1.46,1.46,0,0,0,.41-1,1.43,1.43,0,0,0-.43-1Z"/></svg>