<?xml version="1.0" encoding="utf-8"?>
<!-- Generator: Adobe Illustrator 23.0.1, SVG Export Plug-In . SVG Version: 6.00 Build 0)  -->
<svg version="1.1" id="bffe4c1b-ceda-4725-8e42-bb62ce75ad55"
	 xmlns="http://www.w3.org/2000/svg" xmlns:xlink="http://www.w3.org/1999/xlink" x="0px" y="0px" viewBox="0 0 18 18"
	 style="enable-background:new 0 0 18 18;" xml:space="preserve">
<style type="text/css">
	.st0{fill:#FFFFFF;}
</style>
<title>Zeichenfläche 5</title>
<path class="st0" d="M16.2,6.1l-2.4-5.5c-0.2-0.4-0.6-0.6-1-0.6c-0.4,0.1-0.8,0.4-0.9,0.8c-0.1,0.5-0.4,0.9-0.7,1.3
	c-0.6,0.8-1.7,1.1-2.6,0.7c-1.8-0.6-3.8,0-5.1,1.4C3.3,3.7,2.7,3.5,2.2,3.8C1.8,4,1.6,4.5,1.8,5l5.4,12.4C7.3,17.8,7.7,18,8.1,18
	c0.1,0,0.3,0,0.4-0.1C9,17.7,9.2,17.1,9,16.6c0,0,0,0,0,0l-2.1-4.8v-0.1c0-0.1,0.9-2.2,3.7-1.5c2.4,0.7,5-0.7,5.6-3.2
	c0-0.1,0.1-0.2,0.1-0.3C16.3,6.5,16.3,6.3,16.2,6.1z M14.2,6.5c-0.4,1.4-1.8,2.2-3.2,1.8c0,0,0,0-0.1,0c-1.8-0.5-3.7,0-5,1.4
	L4.5,6.3V6.2c0-0.1,0.9-2.2,3.6-1.5c1.7,0.5,3.5,0,4.6-1.4l0,0L14.2,6.5z"/>
</svg>
