<svg id="aaa8d0ce-75b3-4663-9b05-3ffefc1d6c24" data-name="Ebene 1" xmlns="http://www.w3.org/2000/svg" viewBox="0 0 18 18"><defs><style>.aebe15d1-7662-4213-8c7b-661068079403{fill:#1f382b;fill-rule:evenodd;}</style></defs><title>Zeichenfläche 14</title><path class="aebe15d1-7662-4213-8c7b-661068079403" d="M16.8,13.86H11.55L12.7,15a1,1,0,0,1,0,1.4,1,1,0,0,1-1.39,0h0L8.54,13.61a.94.94,0,0,1-.26-.84.94.94,0,0,1,.26-.61l2.79-2.8a1,1,0,0,1,1.39,0h0a1,1,0,0,1,0,1.4l-1.16,1.17H16.8a.94.94,0,0,1,.95,1v0A1,1,0,0,1,16.8,13.86ZM9.58,5.91,6.77,8.72a1,1,0,0,1-1.4,0h0a1,1,0,0,1,0-1.4L6.53,6.14H1.21a1,1,0,0,1,0-1.92H6.53L5.34,3A1,1,0,0,1,6.75,1.6h0L9.58,4.44a1,1,0,0,1,.28.7v.1s0,0,0,.06A1,1,0,0,1,9.58,5.91Z"/></svg>