<svg id="aabc7989-09f1-4347-b8c0-7feabf0b13cc" data-name="Ebene 1" xmlns="http://www.w3.org/2000/svg" viewBox="0 0 18 18"><defs><style>.a301edec-fa1e-45eb-853f-2e985a2abd13{fill:#1f382b;}</style></defs><title>Zeichenfläche 15</title><path class="a301edec-fa1e-45eb-853f-2e985a2abd13" d="M14,1.5A2.5,2.5,0,1,1,11.5,4,2.5,2.5,0,0,1,14,1.5M14,0a4,4,0,1,0,4,4,4,4,0,0,0-4-4Z"/><path class="a301edec-fa1e-45eb-853f-2e985a2abd13" d="M14,11.5A2.5,2.5,0,1,1,11.5,14,2.5,2.5,0,0,1,14,11.5M14,10a4,4,0,1,0,4,4,4,4,0,0,0-4-4Z"/><path class="a301edec-fa1e-45eb-853f-2e985a2abd13" d="M4,11.5A2.5,2.5,0,1,1,1.5,14,2.5,2.5,0,0,1,4,11.5M4,10a4,4,0,1,0,4,4,4,4,0,0,0-4-4Z"/><path class="a301edec-fa1e-45eb-853f-2e985a2abd13" d="M2.53,7.25A.71.71,0,0,1,2,7L.47,5.5A.75.75,0,0,1,1.53,4.44l1,1,5-5A.75.75,0,1,1,8.56,1.53L3.06,7A.74.74,0,0,1,2.53,7.25Z"/></svg>