<svg id="bffe4c1b-ceda-4725-8e42-bb62ce75ad55" data-name="Ebene 1" xmlns="http://www.w3.org/2000/svg" viewBox="0 0 18 18"><defs><style>.ad0cfdfe-761b-4de6-95a6-939de8dafbb5{fill:#1f382b;}</style></defs><title>Zeichenfläche 5</title><path class="ad0cfdfe-761b-4de6-95a6-939de8dafbb5" d="M16.23,6.09,13.85.6a1,1,0,0,0-1-.6A1,1,0,0,0,12,.76a3.58,3.58,0,0,1-.69,1.31,2.39,2.39,0,0,1-2.63.73,5,5,0,0,0-5.1,1.36A1,1,0,0,0,1.77,5L7.15,17.4a1,1,0,0,0,.91.6,1,1,0,0,0,.39-.08A1,1,0,0,0,9,16.61L6.88,11.8l0-.09c0-.09.88-2.15,3.65-1.49a4.57,4.57,0,0,0,5.71-3.5A1,1,0,0,0,16.23,6.09Zm-2,.45A2.57,2.57,0,0,1,11,8.29,5,5,0,0,0,6,9.65L4.5,6.31l0-.1c0-.09.88-2.15,3.65-1.48a4.32,4.32,0,0,0,4.61-1.39l0,0Z"/></svg>