<svg id="a969cfb7-a33d-4d5b-b0a8-26270c08b371" data-name="Ebene 1" xmlns="http://www.w3.org/2000/svg" viewBox="0 0 18 18"><defs><style>.b6c3c413-54a7-4746-ba51-9262928dfd05{fill:#1f382b;}.b18b7664-bf39-44bd-83b8-14c5fba13a6a{fill:none;stroke:#1f382b;stroke-linecap:round;stroke-linejoin:round;}</style></defs><title>Zeichenfläche 8</title><path class="b6c3c413-54a7-4746-ba51-9262928dfd05" d="M16.5,1.5v2H1.5v-2h15M17,0H1.05A1,1,0,0,0,0,1.05V4A1,1,0,0,0,1.05,5H17A1,1,0,0,0,18,4V1.05A1,1,0,0,0,17,0Z"/><path class="b6c3c413-54a7-4746-ba51-9262928dfd05" d="M16.5,8v2H1.5V8h15M17,6.5H1.05a1,1,0,0,0-1,1v2.9A1,1,0,0,0,1.05,11.5H17A1,1,0,0,0,18,10.45V7.55A1,1,0,0,0,17,6.5Z"/><path class="b6c3c413-54a7-4746-ba51-9262928dfd05" d="M16.5,14.5v2H1.5v-2h15M17,13H1.05a1,1,0,0,0-1,1.05V17A1,1,0,0,0,1.05,18H17A1,1,0,0,0,18,17v-2.9A1,1,0,0,0,17,13Z"/><line class="b18b7664-bf39-44bd-83b8-14c5fba13a6a" x1="2.5" y1="9" x2="12" y2="9"/><line class="b18b7664-bf39-44bd-83b8-14c5fba13a6a" x1="13.5" y1="9" x2="15.5" y2="9"/></svg>