<?xml version="1.0" encoding="utf-8"?>
<!-- Generator: Adobe Illustrator 23.0.1, SVG Export Plug-In . SVG Version: 6.00 Build 0)  -->
<svg version="1.1" id="a15a578f-3a73-444f-8c0e-787cde7fbc69"
	 xmlns="http://www.w3.org/2000/svg" xmlns:xlink="http://www.w3.org/1999/xlink" x="0px" y="0px" viewBox="0 0 18 18"
	 style="enable-background:new 0 0 18 18;" xml:space="preserve">
<style type="text/css">
	.st0{fill:#FFFFFF;}
</style>
<title>Zeichenfläche 12</title>
<path class="st0" d="M10.4,10.4h6.2c0.4,0,0.7-0.2,1-0.4C17.9,9.7,18,9.4,18,9c0-0.4-0.1-0.7-0.4-1c-0.3-0.3-0.6-0.4-1-0.4h-6.1V1.4
	c0-0.4-0.1-0.7-0.4-1C9.7,0.1,9.4,0,9,0C8.6,0,8.3,0.1,8,0.4C7.7,0.7,7.6,1,7.6,1.4v6.2H1.4C0.6,7.6,0,8.2,0,9s0.6,1.4,1.4,1.4h6.2
	v6.2c0,0.4,0.1,0.7,0.4,1l0,0C8.3,17.9,8.6,18,9,18c0.4,0,0.7-0.2,1-0.4c0.3-0.3,0.4-0.6,0.4-1L10.4,10.4z"/>
</svg>
