<?xml version="1.0" encoding="utf-8"?>
<!-- Generator: Adobe Illustrator 23.0.1, SVG Export Plug-In . SVG Version: 6.00 Build 0)  -->
<svg version="1.1" id="af83bf8d-2a78-4cbe-a2d8-18fadb1c3a6f"
	 xmlns="http://www.w3.org/2000/svg" xmlns:xlink="http://www.w3.org/1999/xlink" x="0px" y="0px" viewBox="0 0 18 18"
	 style="enable-background:new 0 0 18 18;" xml:space="preserve">
<style type="text/css">
	.st0{fill-rule:evenodd;clip-rule:evenodd;fill:#FFFFFF;}
</style>
<title>Zeichenfläche 4</title>
<path class="st0" d="M17,8h-1.1c-0.2-1.2-0.6-2.2-1.3-3.2l0.8-0.8c0.3-0.5,0.2-1.1-0.3-1.4c-0.3-0.2-0.8-0.2-1.1,0l-0.8,0.8
	c-0.9-0.7-2.1-1.2-3.2-1.3V1c0-0.6-0.4-1-1-1S8,0.4,8,1v1.1C6.8,2.3,5.8,2.7,4.8,3.4L4.1,2.6C3.6,2.3,3,2.3,2.6,2.7
	c-0.3,0.4-0.3,0.9,0,1.3l0.8,0.8C2.7,5.8,2.3,6.8,2.1,8H1C0.4,8,0,8.4,0,9s0.4,1,1,1h1.1c0.2,1.2,0.6,2.2,1.3,3.2L2.6,14
	c-0.4,0.4-0.3,1.1,0.1,1.4c0.4,0.3,0.9,0.3,1.3,0l0.8-0.8c0.9,0.7,2,1.1,3.2,1.3V17c0,0.6,0.4,1,1,1s1-0.4,1-1v-1.1
	c1.2-0.2,2.2-0.6,3.2-1.3l0.8,0.8c0.5,0.3,1.1,0.2,1.4-0.3c0.2-0.3,0.2-0.8,0-1.1l-0.8-0.8c0.7-0.9,1.2-2.1,1.3-3.2H17
	c0.6,0,1-0.4,1-1S17.6,8,17,8z M9,14c-2.8,0-5-2.2-5-5s2.2-5,5-5s5,2.2,5,5S11.8,14,9,14z"/>
<path class="st0" d="M9,6C7.3,6,6,7.3,6,9s1.3,3,3,3s3-1.3,3-3S10.7,6,9,6z M9,10c-0.6,0-1-0.4-1-1s0.4-1,1-1s1,0.4,1,1S9.6,10,9,10
	z"/>
</svg>
