<?xml version="1.0" encoding="utf-8"?>
<!-- Generator: Adobe Illustrator 23.0.1, SVG Export Plug-In . SVG Version: 6.00 Build 0)  -->
<svg version="1.1" id="b97b26a1-395c-4af9-a888-335aafe31edd"
	 xmlns="http://www.w3.org/2000/svg" xmlns:xlink="http://www.w3.org/1999/xlink" x="0px" y="0px" viewBox="0 0 18 18"
	 style="enable-background:new 0 0 18 18;" xml:space="preserve">
<style type="text/css">
	.st0{fill:#FFFFFF;}
</style>
<title>Zeichenfläche 10</title>
<path class="st0" d="M18,4.6l-4.4-2.4l0.1,5l1.5-0.9c1.5,3.6-0.1,7.7-3.7,9.2s-7.7-0.1-9.2-3.7S2.5,4.1,6,2.6C6.9,2.2,7.9,2,8.9,2
	c0.5,0.1,1-0.3,1-0.8c0.1-0.5-0.3-1-0.8-1c-0.1,0-0.1,0-0.2,0C4,0.1,0,4.1,0,8.9s3.9,8.9,8.8,8.9s8.9-3.9,8.9-8.8
	c0-1.3-0.3-2.6-0.8-3.8L18,4.6z"/>
</svg>
