<svg id="a15a578f-3a73-444f-8c0e-787cde7fbc69" data-name="Ebene 1" xmlns="http://www.w3.org/2000/svg" viewBox="0 0 18 18"><defs><style>.eb287f6a-5d48-4469-9bd2-3493c67b0165{fill:#1f382b;}</style></defs><title>Zeichenfläche 12</title><path class="eb287f6a-5d48-4469-9bd2-3493c67b0165" d="M10.42,10.43h6.2a1.45,1.45,0,0,0,1-.43A1.4,1.4,0,0,0,18,9a1.27,1.27,0,0,0-.43-1,1.4,1.4,0,0,0-1-.4H10.42V1.39a1.32,1.32,0,0,0-.43-1A1.41,1.41,0,0,0,9,0,1.45,1.45,0,0,0,8,.41a1.41,1.41,0,0,0-.41,1V7.58H1.39a1.42,1.42,0,0,0,0,2.84H7.58v6.2a1.38,1.38,0,0,0,.42,1H8A1.41,1.41,0,0,0,9,18a1.45,1.45,0,0,0,1-.43,1.4,1.4,0,0,0,.4-1Z"/></svg>