<svg id="b87f1650-0f9c-4def-b4d5-9388e0d3d85d" data-name="Ebene 1" xmlns="http://www.w3.org/2000/svg" viewBox="0 0 18 18"><defs><style>.a7a4327d-a45c-412a-a473-0aedd6df3d8c{fill:#1f382b;}</style></defs><title>Zeichenfläche 2</title><path class="a7a4327d-a45c-412a-a473-0aedd6df3d8c" d="M16.5,1.5v2H1.5v-2h15M17,0H1.05A1,1,0,0,0,0,1.05V4A1,1,0,0,0,1.05,5H17A1,1,0,0,0,18,4V1.05A1,1,0,0,0,17,0Z"/><path class="a7a4327d-a45c-412a-a473-0aedd6df3d8c" d="M16.5,8v2H1.5V8h15M17,6.5H1.05a1,1,0,0,0-1,1v2.9A1,1,0,0,0,1.05,11.5H17A1,1,0,0,0,18,10.45V7.55A1,1,0,0,0,17,6.5Z"/><path class="a7a4327d-a45c-412a-a473-0aedd6df3d8c" d="M16.5,14.5v2H1.5v-2h15M17,13H1.05a1,1,0,0,0-1,1.05V17A1,1,0,0,0,1.05,18H17A1,1,0,0,0,18,17v-2.9A1,1,0,0,0,17,13Z"/></svg>