<svg id="be96a57a-b0e2-4eee-b6a1-1226b68dbec4" data-name="Ebene 1" xmlns="http://www.w3.org/2000/svg" viewBox="0 0 18 18"><defs><style>.f417a2b0-5a04-49c2-9e47-1a1f3c855c12{fill:#1f382b;}</style></defs><title>Zeichenfläche 19</title><path class="f417a2b0-5a04-49c2-9e47-1a1f3c855c12" d="M10.91,1.92a1.67,1.67,0,0,1-.16.74,1.87,1.87,0,0,1-.42.59,2,2,0,0,1-.61.41A1.94,1.94,0,0,1,9,3.81a1.8,1.8,0,0,1-.73-.15,2,2,0,0,1-.61-.41,2.23,2.23,0,0,1-.41-.59,1.81,1.81,0,0,1-.15-.74,1.9,1.9,0,0,1,.15-.75A2,2,0,0,1,7.62.56,2,2,0,0,1,8.23.15,1.8,1.8,0,0,1,9,0a1.94,1.94,0,0,1,.76.15,2,2,0,0,1,.61.41,1.75,1.75,0,0,1,.42.61A1.74,1.74,0,0,1,10.91,1.92Zm-.45,3.65v12.5h-3V5.57Z"/></svg>