<?xml version="1.0" encoding="utf-8"?>
<!-- Generator: Adobe Illustrator 23.0.1, SVG Export Plug-In . SVG Version: 6.00 Build 0)  -->
<svg version="1.1" id="be6f6ec6-70ff-4ca2-bc9a-7f0e8bec7680"
	 xmlns="http://www.w3.org/2000/svg" xmlns:xlink="http://www.w3.org/1999/xlink" x="0px" y="0px" viewBox="0 0 18 18"
	 style="enable-background:new 0 0 18 18;" xml:space="preserve">
<style type="text/css">
	.st0{fill-rule:evenodd;clip-rule:evenodd;fill:#FFFFFF;}
</style>
<title>Zeichenfläche 13</title>
<path class="st0" d="M16.7,16.7c-0.4,0.4-1,0.4-1.4,0c0,0,0,0,0,0l-4-4c-2.9,2.1-7,1.4-9-1.5s-1.4-7,1.5-9s7-1.4,9,1.5
	C13.6,4.8,14,6.1,14,7.5c0,1.4-0.4,2.7-1.3,3.8l4,4C17.1,15.7,17.1,16.3,16.7,16.7z M7.5,3C5,3,3,5,3,7.5S5,12,7.5,12S12,10,12,7.5
	C12,5,10,3,7.5,3C7.5,3,7.5,3,7.5,3z"/>
</svg>
