<svg id="a5c5234d-435e-4034-bcd8-c6d933b99d8e" data-name="Ebene 1" xmlns="http://www.w3.org/2000/svg" viewBox="0 0 18 18"><defs><style>.b51a943a-3cd5-4dc4-9727-06b2983d9f00{fill:#1f382b;}</style></defs><title>Zeichenfläche 20</title><path class="b51a943a-3cd5-4dc4-9727-06b2983d9f00" d="M1.32,4.38H16.68A1.35,1.35,0,0,0,18,3a1.35,1.35,0,0,0-1.32-1.38H1.32A1.35,1.35,0,0,0,0,3,1.35,1.35,0,0,0,1.32,4.38Z"/><path class="b51a943a-3cd5-4dc4-9727-06b2983d9f00" d="M16.68,13.62H1.32a1.38,1.38,0,0,0,0,2.76H16.68a1.38,1.38,0,0,0,0-2.76Z"/><path class="b51a943a-3cd5-4dc4-9727-06b2983d9f00" d="M16.68,7.62H1.32a1.38,1.38,0,0,0,0,2.76H16.68a1.38,1.38,0,0,0,0-2.76Z"/></svg>