<?xml version="1.0" encoding="utf-8"?>
<!-- Generator: Adobe Illustrator 23.0.1, SVG Export Plug-In . SVG Version: 6.00 Build 0)  -->
<svg version="1.1" id="f1bc3280-c3bb-493b-95f7-a3f028e773bc"
	 xmlns="http://www.w3.org/2000/svg" xmlns:xlink="http://www.w3.org/1999/xlink" x="0px" y="0px" viewBox="0 0 18 18"
	 style="enable-background:new 0 0 18 18;" xml:space="preserve">
<style type="text/css">
	.st0{fill-rule:evenodd;clip-rule:evenodd;fill:#FFFFFF;}
</style>
<title>Zeichenfläche 9</title>
<path class="st0" d="M17.1,16.4H0.9c-0.4,0-0.8,0.4-0.8,0.8c0,0.4,0.4,0.8,0.8,0.8h16.3c0.4,0,0.8-0.3,0.8-0.8S17.6,16.4,17.1,16.4
	C17.2,16.4,17.2,16.4,17.1,16.4L17.1,16.4z"/>
<path class="st0" d="M16.4,0c-0.9,0-1.6,0.7-1.6,1.6c0,0.3,0.1,0.6,0.3,0.9l-3.6,6.2c-0.3,0-0.6,0.1-0.8,0.2L7,6.9l0,0
	C7,6,6.3,5.3,5.5,5.3S3.9,6,3.9,6.9c0,0.3,0.1,0.6,0.3,0.9l-2.4,3H1.6c-0.9,0-1.6,0.7-1.6,1.6s0.7,1.6,1.5,1.6
	c0.9,0,1.6-0.7,1.6-1.6c0,0,0,0,0,0c0-0.2,0-0.4-0.1-0.6l2.6-3.4c0.2,0,0.4-0.1,0.5-0.2l3.9,2.1c0.1,0.9,0.8,1.5,1.7,1.4
	c0.8-0.1,1.4-0.7,1.4-1.4c0-0.3,0-0.6-0.2-0.8l3.6-6.4c0.9-0.1,1.5-0.8,1.5-1.7C18,0.6,17.3-0.1,16.4,0z"/>
</svg>
